{
 "cells": [
  {
   "cell_type": "code",
   "execution_count": 1,
   "id": "atmospheric-sharing",
   "metadata": {},
   "outputs": [
    {
     "name": "stdout",
     "output_type": "stream",
     "text": [
      "/home/alee/Documents/MuhammadAlee/FaceSwap/fewshot-face-translation-GAN\n"
     ]
    }
   ],
   "source": [
    "%cd \"fewshot-face-translation-GAN\""
   ]
  },
  {
   "cell_type": "code",
   "execution_count": 2,
   "id": "needed-contrast",
   "metadata": {},
   "outputs": [],
   "source": [
    "import warnings\n",
    "warnings.filterwarnings(\"ignore\")"
   ]
  },
  {
   "cell_type": "code",
   "execution_count": 3,
   "id": "eligible-bishop",
   "metadata": {},
   "outputs": [
    {
     "name": "stderr",
     "output_type": "stream",
     "text": [
      "Using TensorFlow backend.\n"
     ]
    }
   ],
   "source": [
    "from models import FaceTranslationGANInferenceModel"
   ]
  },
  {
   "cell_type": "code",
   "execution_count": 4,
   "id": "elect-message",
   "metadata": {},
   "outputs": [
    {
     "name": "stdout",
     "output_type": "stream",
     "text": [
      "WARNING:tensorflow:From /home/alee/Documents/MuhammadAlee/FaceSwap/env/lib/python3.6/site-packages/keras/backend/tensorflow_backend.py:74: The name tf.get_default_graph is deprecated. Please use tf.compat.v1.get_default_graph instead.\n",
      "\n",
      "WARNING:tensorflow:From /home/alee/Documents/MuhammadAlee/FaceSwap/env/lib/python3.6/site-packages/keras/backend/tensorflow_backend.py:517: The name tf.placeholder is deprecated. Please use tf.compat.v1.placeholder instead.\n",
      "\n",
      "WARNING:tensorflow:From /home/alee/Documents/MuhammadAlee/FaceSwap/env/lib/python3.6/site-packages/keras/backend/tensorflow_backend.py:4185: The name tf.truncated_normal is deprecated. Please use tf.random.truncated_normal instead.\n",
      "\n",
      "WARNING:tensorflow:From /home/alee/Documents/MuhammadAlee/FaceSwap/fewshot-face-translation-GAN/networks/nn_blocks.py:141: The name tf.image.resize_images is deprecated. Please use tf.image.resize instead.\n",
      "\n",
      "WARNING:tensorflow:From /home/alee/Documents/MuhammadAlee/FaceSwap/env/lib/python3.6/site-packages/keras/backend/tensorflow_backend.py:4138: The name tf.random_uniform is deprecated. Please use tf.random.uniform instead.\n",
      "\n",
      "WARNING:tensorflow:From /home/alee/Documents/MuhammadAlee/FaceSwap/env/lib/python3.6/site-packages/keras/backend/tensorflow_backend.py:2018: The name tf.image.resize_nearest_neighbor is deprecated. Please use tf.compat.v1.image.resize_nearest_neighbor instead.\n",
      "\n",
      "WARNING:tensorflow:From /home/alee/Documents/MuhammadAlee/FaceSwap/env/lib/python3.6/site-packages/keras/backend/tensorflow_backend.py:174: The name tf.get_default_session is deprecated. Please use tf.compat.v1.get_default_session instead.\n",
      "\n",
      "WARNING:tensorflow:From /home/alee/Documents/MuhammadAlee/FaceSwap/env/lib/python3.6/site-packages/keras/backend/tensorflow_backend.py:181: The name tf.ConfigProto is deprecated. Please use tf.compat.v1.ConfigProto instead.\n",
      "\n",
      "WARNING:tensorflow:From /home/alee/Documents/MuhammadAlee/FaceSwap/env/lib/python3.6/site-packages/keras/backend/tensorflow_backend.py:186: The name tf.Session is deprecated. Please use tf.compat.v1.Session instead.\n",
      "\n",
      "WARNING:tensorflow:From /home/alee/Documents/MuhammadAlee/FaceSwap/env/lib/python3.6/site-packages/keras/backend/tensorflow_backend.py:190: The name tf.global_variables is deprecated. Please use tf.compat.v1.global_variables instead.\n",
      "\n",
      "WARNING:tensorflow:From /home/alee/Documents/MuhammadAlee/FaceSwap/env/lib/python3.6/site-packages/keras/backend/tensorflow_backend.py:199: The name tf.is_variable_initialized is deprecated. Please use tf.compat.v1.is_variable_initialized instead.\n",
      "\n",
      "WARNING:tensorflow:From /home/alee/Documents/MuhammadAlee/FaceSwap/env/lib/python3.6/site-packages/keras/backend/tensorflow_backend.py:206: The name tf.variables_initializer is deprecated. Please use tf.compat.v1.variables_initializer instead.\n",
      "\n",
      "Found checkpoints in weights folder. Built model with pre-trained weights.\n"
     ]
    }
   ],
   "source": [
    "model = FaceTranslationGANInferenceModel()"
   ]
  },
  {
   "cell_type": "code",
   "execution_count": 5,
   "id": "viral-class",
   "metadata": {},
   "outputs": [
    {
     "name": "stdout",
     "output_type": "stream",
     "text": [
      "WARNING:tensorflow:From /home/alee/Documents/MuhammadAlee/FaceSwap/env/lib/python3.6/site-packages/keras/backend/tensorflow_backend.py:1834: The name tf.nn.fused_batch_norm is deprecated. Please use tf.compat.v1.nn.fused_batch_norm instead.\n",
      "\n",
      "WARNING:tensorflow:From /home/alee/Documents/MuhammadAlee/FaceSwap/env/lib/python3.6/site-packages/keras/backend/tensorflow_backend.py:133: The name tf.placeholder_with_default is deprecated. Please use tf.compat.v1.placeholder_with_default instead.\n",
      "\n",
      "WARNING:tensorflow:From /home/alee/Documents/MuhammadAlee/FaceSwap/env/lib/python3.6/site-packages/keras/backend/tensorflow_backend.py:3976: The name tf.nn.max_pool is deprecated. Please use tf.nn.max_pool2d instead.\n",
      "\n",
      "WARNING:tensorflow:From /home/alee/Documents/MuhammadAlee/FaceSwap/env/lib/python3.6/site-packages/keras/backend/tensorflow_backend.py:3445: calling dropout (from tensorflow.python.ops.nn_ops) with keep_prob is deprecated and will be removed in a future version.\n",
      "Instructions for updating:\n",
      "Please use `rate` instead of `keep_prob`. Rate should be set to `rate = 1 - keep_prob`.\n",
      "WARNING:tensorflow:From /home/alee/Documents/MuhammadAlee/FaceSwap/fewshot-face-translation-GAN/face_toolbox_keras/models/verifier/face_verifier.py:52: The name tf.image.resize_bilinear is deprecated. Please use tf.compat.v1.image.resize_bilinear instead.\n",
      "\n",
      "WARNING:tensorflow:From /home/alee/Documents/MuhammadAlee/FaceSwap/env/lib/python3.6/site-packages/tensorflow_core/python/ops/image_ops_impl.py:1518: div (from tensorflow.python.ops.math_ops) is deprecated and will be removed in a future version.\n",
      "Instructions for updating:\n",
      "Deprecated in favor of operator or tf.math.divide.\n"
     ]
    }
   ],
   "source": [
    "from face_toolbox_keras.models.verifier.face_verifier import FaceVerifier\n",
    "fv = FaceVerifier(classes=512)\n",
    "\n",
    "from face_toolbox_keras.models.parser import face_parser\n",
    "fp = face_parser.FaceParser()\n",
    "\n",
    "from face_toolbox_keras.models.detector import face_detector\n",
    "fd = face_detector.FaceAlignmentDetector()\n",
    "\n",
    "from face_toolbox_keras.models.detector.iris_detector import IrisDetector\n",
    "idet = IrisDetector()\n",
    "#idet.set_detector(fd)\n",
    "from utils.faceswap import FaceSwap\n",
    "fs=FaceSwap()"
   ]
  },
  {
   "cell_type": "code",
   "execution_count": 6,
   "id": "controversial-louisville",
   "metadata": {},
   "outputs": [],
   "source": [
    "import numpy as np\n",
    "from utils import utils\n",
    "from matplotlib import pyplot as plt"
   ]
  },
  {
   "cell_type": "code",
   "execution_count": 7,
   "id": "related-yield",
   "metadata": {},
   "outputs": [
    {
     "name": "stdout",
     "output_type": "stream",
     "text": [
      "ffmpeg version 3.4.8-0ubuntu0.2 Copyright (c) 2000-2020 the FFmpeg developers\n",
      "  built with gcc 7 (Ubuntu 7.5.0-3ubuntu1~18.04)\n",
      "  configuration: --prefix=/usr --extra-version=0ubuntu0.2 --toolchain=hardened --libdir=/usr/lib/x86_64-linux-gnu --incdir=/usr/include/x86_64-linux-gnu --enable-gpl --disable-stripping --enable-avresample --enable-avisynth --enable-gnutls --enable-ladspa --enable-libass --enable-libbluray --enable-libbs2b --enable-libcaca --enable-libcdio --enable-libflite --enable-libfontconfig --enable-libfreetype --enable-libfribidi --enable-libgme --enable-libgsm --enable-libmp3lame --enable-libmysofa --enable-libopenjpeg --enable-libopenmpt --enable-libopus --enable-libpulse --enable-librubberband --enable-librsvg --enable-libshine --enable-libsnappy --enable-libsoxr --enable-libspeex --enable-libssh --enable-libtheora --enable-libtwolame --enable-libvorbis --enable-libvpx --enable-libwavpack --enable-libwebp --enable-libx265 --enable-libxml2 --enable-libxvid --enable-libzmq --enable-libzvbi --enable-omx --enable-openal --enable-opengl --enable-sdl2 --enable-libdc1394 --enable-libdrm --enable-libiec61883 --enable-chromaprint --enable-frei0r --enable-libopencv --enable-libx264 --enable-shared\n",
      "  WARNING: library configuration mismatch\n",
      "  avcodec     configuration: --prefix=/usr --extra-version=0ubuntu0.2 --toolchain=hardened --libdir=/usr/lib/x86_64-linux-gnu --incdir=/usr/include/x86_64-linux-gnu --enable-gpl --disable-stripping --enable-avresample --enable-avisynth --enable-gnutls --enable-ladspa --enable-libass --enable-libbluray --enable-libbs2b --enable-libcaca --enable-libcdio --enable-libflite --enable-libfontconfig --enable-libfreetype --enable-libfribidi --enable-libgme --enable-libgsm --enable-libmp3lame --enable-libmysofa --enable-libopenjpeg --enable-libopenmpt --enable-libopus --enable-libpulse --enable-librubberband --enable-librsvg --enable-libshine --enable-libsnappy --enable-libsoxr --enable-libspeex --enable-libssh --enable-libtheora --enable-libtwolame --enable-libvorbis --enable-libvpx --enable-libwavpack --enable-libwebp --enable-libx265 --enable-libxml2 --enable-libxvid --enable-libzmq --enable-libzvbi --enable-omx --enable-openal --enable-opengl --enable-sdl2 --enable-libdc1394 --enable-libdrm --enable-libiec61883 --enable-chromaprint --enable-frei0r --enable-libopencv --enable-libx264 --enable-shared --enable-version3 --disable-doc --disable-programs --enable-libopencore_amrnb --enable-libopencore_amrwb --enable-libtesseract --enable-libvo_amrwbenc\n",
      "  libavutil      55. 78.100 / 55. 78.100\n",
      "  libavcodec     57.107.100 / 57.107.100\n",
      "  libavformat    57. 83.100 / 57. 83.100\n",
      "  libavdevice    57. 10.100 / 57. 10.100\n",
      "  libavfilter     6.107.100 /  6.107.100\n",
      "  libavresample   3.  7.  0 /  3.  7.  0\n",
      "  libswscale      4.  8.100 /  4.  8.100\n",
      "  libswresample   2.  9.100 /  2.  9.100\n",
      "  libpostproc    54.  7.100 / 54.  7.100\n",
      "Input #0, mov,mp4,m4a,3gp,3g2,mj2, from 'Video/src/cut.mp4':\n",
      "  Metadata:\n",
      "    major_brand     : isom\n",
      "    minor_version   : 512\n",
      "    compatible_brands: isomiso2avc1mp41\n",
      "    encoder         : Lavf57.83.100\n",
      "  Duration: 00:00:15.02, start: 0.000000, bitrate: 493 kb/s\n",
      "    Stream #0:0(und): Video: h264 (High) (avc1 / 0x31637661), yuv420p, 1280x720 [SAR 1:1 DAR 16:9], 356 kb/s, 29.97 fps, 29.97 tbr, 30k tbn, 59.94 tbc (default)\n",
      "    Metadata:\n",
      "      handler_name    : VideoHandler\n",
      "    Stream #0:1(eng): Audio: aac (LC) (mp4a / 0x6134706D), 44100 Hz, stereo, fltp, 128 kb/s (default)\n",
      "    Metadata:\n",
      "      handler_name    : SoundHandler\n",
      "Stream mapping:\n",
      "  Stream #0:0 -> #0:0 (h264 (native) -> png (native))\n",
      "Press [q] to stop, [?] for help\n",
      "Output #0, image2, to 'Video/raw_images/%03d.png':\n",
      "  Metadata:\n",
      "    major_brand     : isom\n",
      "    minor_version   : 512\n",
      "    compatible_brands: isomiso2avc1mp41\n",
      "    encoder         : Lavf57.83.100\n",
      "    Stream #0:0(und): Video: png, rgb24, 1280x720 [SAR 1:1 DAR 16:9], q=2-31, 200 kb/s, 29.97 fps, 29.97 tbn, 29.97 tbc (default)\n",
      "    Metadata:\n",
      "      handler_name    : VideoHandler\n",
      "      encoder         : Lavc57.107.100 png\n",
      "frame=  450 fps=136 q=-0.0 Lsize=N/A time=00:00:15.01 bitrate=N/A speed=4.54x    \n",
      "video:334195kB audio:0kB subtitle:0kB other streams:0kB global headers:0kB muxing overhead: unknown\n"
     ]
    }
   ],
   "source": [
    "!ffmpeg -i Video/src/cut.mp4 Video/raw_images/$filename%03d.png"
   ]
  },
  {
   "cell_type": "code",
   "execution_count": 8,
   "id": "effective-infection",
   "metadata": {},
   "outputs": [],
   "source": [
    "def correct_colours(im1, im2):\n",
    "    COLOUR_CORRECT_BLUR_FRAC=0.6\n",
    "    blur_amount = COLOUR_CORRECT_BLUR_FRAC * np.linalg.norm(\n",
    "                              np.mean(im1, axis=0) -\n",
    "                              np.mean(im2, axis=0))\n",
    "    blur_amount = int(blur_amount)\n",
    "    if blur_amount % 2 == 0:\n",
    "        blur_amount += 1\n",
    "    im1_blur = cv2.GaussianBlur(im1, (blur_amount, blur_amount), 0)\n",
    "    im2_blur = cv2.GaussianBlur(im2, (blur_amount, blur_amount), 0)\n",
    "\n",
    "    # Avoid divide-by-zero errors.\n",
    "    im2_blur += (128 * (im2_blur <= 1.0)).astype(im2_blur.dtype)\n",
    "\n",
    "    result= (im2.astype(np.float64) * im1_blur.astype(np.float64) /\n",
    "                                                im2_blur.astype(np.float64))\n",
    "    result = np.clip(result, 0, 255).astype(np.uint8)\n",
    "    return result"
   ]
  },
  {
   "cell_type": "code",
   "execution_count": 12,
   "id": "palestinian-voluntary",
   "metadata": {},
   "outputs": [
    {
     "name": "stdout",
     "output_type": "stream",
     "text": [
      "Video/raw_images/280.png\n",
      "Video/raw_images/040.png\n",
      "Multiple faces detected. Only the most confident face will be processed.\n",
      "Video/raw_images/106.png\n",
      "Multiple faces detected. Only the most confident face will be processed.\n",
      "Multiple faces detected. Only the most confident face will be processed.\n",
      "Video/raw_images/046.png\n",
      "Multiple faces detected. Only the most confident face will be processed.\n",
      "Video/raw_images/366.png\n",
      "Video/raw_images/257.png\n",
      "Video/raw_images/412.png\n",
      "Video/raw_images/264.png\n",
      "Video/raw_images/402.png\n",
      "Video/raw_images/168.png\n",
      "Video/raw_images/252.png\n",
      "Video/raw_images/345.png\n",
      "Video/raw_images/333.png\n",
      "Video/raw_images/312.png\n",
      "Video/raw_images/409.png\n",
      "Video/raw_images/042.png\n",
      "Multiple faces detected. Only the most confident face will be processed.\n",
      "Multiple faces detected. Only the most confident face will be processed.\n",
      "Video/raw_images/359.png\n",
      "Video/raw_images/173.png\n",
      "Video/raw_images/117.png\n",
      "Multiple faces detected. Only the most confident face will be processed.\n",
      "Video/raw_images/335.png\n",
      "Video/raw_images/354.png\n",
      "Video/raw_images/223.png\n",
      "Video/raw_images/018.png\n",
      "Multiple faces detected. Only the most confident face will be processed.\n",
      "Multiple faces detected. Only the most confident face will be processed.\n",
      "Video/raw_images/230.png\n",
      "Video/raw_images/148.png\n",
      "Multiple faces detected. Only the most confident face will be processed.\n",
      "Multiple faces detected. Only the most confident face will be processed.\n",
      "Video/raw_images/248.png\n",
      "Video/raw_images/408.png\n",
      "Video/raw_images/430.png\n",
      "Video/raw_images/045.png\n",
      "Multiple faces detected. Only the most confident face will be processed.\n",
      "Video/raw_images/144.png\n",
      "Multiple faces detected. Only the most confident face will be processed.\n",
      "Video/raw_images/440.png\n",
      "Video/raw_images/097.png\n",
      "Multiple faces detected. Only the most confident face will be processed.\n",
      "Multiple faces detected. Only the most confident face will be processed.\n",
      "Video/raw_images/256.png\n",
      "Video/raw_images/098.png\n",
      "Multiple faces detected. Only the most confident face will be processed.\n",
      "Video/raw_images/445.png\n",
      "Video/raw_images/273.png\n",
      "Video/raw_images/259.png\n",
      "Video/raw_images/418.png\n",
      "Video/raw_images/212.png\n",
      "Video/raw_images/424.png\n",
      "Video/raw_images/104.png\n",
      "Multiple faces detected. Only the most confident face will be processed.\n",
      "Multiple faces detected. Only the most confident face will be processed.\n",
      "Video/raw_images/382.png\n",
      "Video/raw_images/328.png\n",
      "Video/raw_images/342.png\n",
      "Video/raw_images/235.png\n",
      "Video/raw_images/380.png\n",
      "Video/raw_images/226.png\n",
      "Video/raw_images/206.png\n",
      "Video/raw_images/399.png\n",
      "Video/raw_images/352.png\n",
      "Video/raw_images/068.png\n",
      "Video/raw_images/320.png\n",
      "Video/raw_images/429.png\n",
      "Video/raw_images/019.png\n",
      "Multiple faces detected. Only the most confident face will be processed.\n",
      "Multiple faces detected. Only the most confident face will be processed.\n",
      "Video/raw_images/325.png\n",
      "Video/raw_images/073.png\n",
      "Multiple faces detected. Only the most confident face will be processed.\n",
      "Multiple faces detected. Only the most confident face will be processed.\n",
      "Video/raw_images/221.png\n",
      "Video/raw_images/316.png\n",
      "Video/raw_images/120.png\n",
      "Multiple faces detected. Only the most confident face will be processed.\n",
      "Video/raw_images/129.png\n",
      "Multiple faces detected. Only the most confident face will be processed.\n",
      "Multiple faces detected. Only the most confident face will be processed.\n",
      "Video/raw_images/444.png\n",
      "Video/raw_images/134.png\n",
      "Multiple faces detected. Only the most confident face will be processed.\n",
      "Multiple faces detected. Only the most confident face will be processed.\n",
      "Video/raw_images/438.png\n",
      "Video/raw_images/160.png\n",
      "Multiple faces detected. Only the most confident face will be processed.\n",
      "Video/raw_images/020.png\n",
      "Multiple faces detected. Only the most confident face will be processed.\n",
      "Multiple faces detected. Only the most confident face will be processed.\n",
      "Video/raw_images/361.png\n",
      "Video/raw_images/376.png\n",
      "Video/raw_images/371.png\n",
      "Video/raw_images/305.png\n",
      "Video/raw_images/384.png\n",
      "Video/raw_images/027.png\n",
      "Multiple faces detected. Only the most confident face will be processed.\n",
      "Multiple faces detected. Only the most confident face will be processed.\n",
      "Video/raw_images/210.png\n",
      "Video/raw_images/036.png\n",
      "Multiple faces detected. Only the most confident face will be processed.\n",
      "Multiple faces detected. Only the most confident face will be processed.\n",
      "Video/raw_images/057.png\n",
      "Multiple faces detected. Only the most confident face will be processed.\n",
      "Multiple faces detected. Only the most confident face will be processed.\n",
      "Video/raw_images/265.png\n",
      "Video/raw_images/239.png\n",
      "Video/raw_images/227.png\n",
      "Video/raw_images/128.png\n",
      "Multiple faces detected. Only the most confident face will be processed.\n",
      "Multiple faces detected. Only the most confident face will be processed.\n",
      "Video/raw_images/255.png\n",
      "Video/raw_images/029.png\n",
      "Multiple faces detected. Only the most confident face will be processed.\n",
      "Multiple faces detected. Only the most confident face will be processed.\n",
      "Video/raw_images/141.png\n",
      "Multiple faces detected. Only the most confident face will be processed.\n",
      "Video/raw_images/417.png\n",
      "Video/raw_images/024.png\n",
      "Multiple faces detected. Only the most confident face will be processed.\n",
      "Multiple faces detected. Only the most confident face will be processed.\n",
      "Video/raw_images/272.png\n",
      "Video/raw_images/080.png\n",
      "Multiple faces detected. Only the most confident face will be processed.\n",
      "Multiple faces detected. Only the most confident face will be processed.\n",
      "Video/raw_images/276.png\n",
      "Video/raw_images/052.png\n",
      "Multiple faces detected. Only the most confident face will be processed.\n",
      "Multiple faces detected. Only the most confident face will be processed.\n",
      "Video/raw_images/301.png\n",
      "Video/raw_images/392.png\n",
      "Video/raw_images/191.png\n",
      "Video/raw_images/238.png\n",
      "Video/raw_images/143.png\n",
      "Multiple faces detected. Only the most confident face will be processed.\n",
      "Video/raw_images/026.png\n",
      "Multiple faces detected. Only the most confident face will be processed.\n",
      "Multiple faces detected. Only the most confident face will be processed.\n",
      "Video/raw_images/132.png\n",
      "Multiple faces detected. Only the most confident face will be processed.\n",
      "Multiple faces detected. Only the most confident face will be processed.\n",
      "Video/raw_images/130.png\n",
      "Multiple faces detected. Only the most confident face will be processed.\n",
      "Video/raw_images/266.png\n",
      "Video/raw_images/185.png\n",
      "Video/raw_images/194.png\n",
      "Video/raw_images/369.png\n",
      "Video/raw_images/241.png\n",
      "Video/raw_images/086.png\n",
      "Multiple faces detected. Only the most confident face will be processed.\n",
      "Video/raw_images/435.png\n",
      "Video/raw_images/368.png\n",
      "Video/raw_images/386.png\n",
      "Video/raw_images/103.png\n",
      "Multiple faces detected. Only the most confident face will be processed.\n",
      "Multiple faces detected. Only the most confident face will be processed.\n",
      "Video/raw_images/364.png\n",
      "Video/raw_images/414.png\n",
      "Video/raw_images/156.png\n",
      "Multiple faces detected. Only the most confident face will be processed.\n",
      "Video/raw_images/304.png\n",
      "Video/raw_images/152.png\n",
      "Multiple faces detected. Only the most confident face will be processed.\n",
      "Multiple faces detected. Only the most confident face will be processed.\n",
      "Video/raw_images/009.png\n",
      "Multiple faces detected. Only the most confident face will be processed.\n",
      "Video/raw_images/439.png\n",
      "Video/raw_images/321.png\n",
      "Video/raw_images/324.png\n",
      "Video/raw_images/338.png\n",
      "Video/raw_images/111.png\n",
      "Multiple faces detected. Only the most confident face will be processed.\n",
      "Video/raw_images/400.png\n",
      "Multiple faces detected. Only the most confident face will be processed.\n",
      "Video/raw_images/422.png\n",
      "Video/raw_images/415.png\n",
      "Video/raw_images/196.png\n",
      "Video/raw_images/373.png\n",
      "Video/raw_images/233.png\n",
      "Video/raw_images/436.png\n",
      "Video/raw_images/242.png\n",
      "Video/raw_images/416.png\n",
      "Video/raw_images/192.png\n",
      "Video/raw_images/066.png\n",
      "Multiple faces detected. Only the most confident face will be processed.\n",
      "Multiple faces detected. Only the most confident face will be processed.\n",
      "Video/raw_images/175.png\n",
      "Video/raw_images/050.png\n",
      "Multiple faces detected. Only the most confident face will be processed.\n",
      "Multiple faces detected. Only the most confident face will be processed.\n",
      "Video/raw_images/413.png\n",
      "Video/raw_images/225.png\n",
      "Video/raw_images/061.png\n",
      "Multiple faces detected. Only the most confident face will be processed.\n",
      "Multiple faces detected. Only the most confident face will be processed.\n"
     ]
    },
    {
     "name": "stdout",
     "output_type": "stream",
     "text": [
      "Video/raw_images/065.png\n",
      "Multiple faces detected. Only the most confident face will be processed.\n",
      "Multiple faces detected. Only the most confident face will be processed.\n",
      "Video/raw_images/298.png\n",
      "Video/raw_images/198.png\n",
      "Video/raw_images/092.png\n",
      "Multiple faces detected. Only the most confident face will be processed.\n",
      "Video/raw_images/186.png\n",
      "Video/raw_images/297.png\n",
      "Video/raw_images/165.png\n",
      "Video/raw_images/394.png\n",
      "Video/raw_images/158.png\n",
      "Multiple faces detected. Only the most confident face will be processed.\n",
      "Video/raw_images/007.png\n",
      "Multiple faces detected. Only the most confident face will be processed.\n",
      "Multiple faces detected. Only the most confident face will be processed.\n",
      "Video/raw_images/062.png\n",
      "Multiple faces detected. Only the most confident face will be processed.\n",
      "Multiple faces detected. Only the most confident face will be processed.\n",
      "Video/raw_images/396.png\n",
      "Video/raw_images/334.png\n",
      "Video/raw_images/011.png\n",
      "Multiple faces detected. Only the most confident face will be processed.\n",
      "Video/raw_images/195.png\n",
      "Video/raw_images/269.png\n",
      "Video/raw_images/306.png\n",
      "Video/raw_images/023.png\n",
      "Multiple faces detected. Only the most confident face will be processed.\n",
      "Multiple faces detected. Only the most confident face will be processed.\n",
      "Video/raw_images/346.png\n",
      "Video/raw_images/119.png\n",
      "Multiple faces detected. Only the most confident face will be processed.\n",
      "Multiple faces detected. Only the most confident face will be processed.\n",
      "Video/raw_images/109.png\n",
      "Multiple faces detected. Only the most confident face will be processed.\n",
      "Video/raw_images/070.png\n",
      "Multiple faces detected. Only the most confident face will be processed.\n",
      "Video/raw_images/030.png\n",
      "Multiple faces detected. Only the most confident face will be processed.\n",
      "Multiple faces detected. Only the most confident face will be processed.\n",
      "Video/raw_images/047.png\n",
      "Multiple faces detected. Only the most confident face will be processed.\n",
      "Video/raw_images/077.png\n",
      "Multiple faces detected. Only the most confident face will be processed.\n",
      "Multiple faces detected. Only the most confident face will be processed.\n",
      "Video/raw_images/035.png\n",
      "Multiple faces detected. Only the most confident face will be processed.\n",
      "Multiple faces detected. Only the most confident face will be processed.\n",
      "Video/raw_images/317.png\n",
      "Video/raw_images/398.png\n",
      "Video/raw_images/407.png\n",
      "Video/raw_images/283.png\n",
      "Video/raw_images/267.png\n",
      "Video/raw_images/118.png\n",
      "Multiple faces detected. Only the most confident face will be processed.\n",
      "Video/raw_images/222.png\n",
      "Video/raw_images/433.png\n",
      "Video/raw_images/012.png\n",
      "Multiple faces detected. Only the most confident face will be processed.\n",
      "Multiple faces detected. Only the most confident face will be processed.\n",
      "Video/raw_images/171.png\n",
      "Video/raw_images/067.png\n",
      "Multiple faces detected. Only the most confident face will be processed.\n",
      "Multiple faces detected. Only the most confident face will be processed.\n",
      "Video/raw_images/293.png\n",
      "Video/raw_images/022.png\n",
      "Multiple faces detected. Only the most confident face will be processed.\n",
      "Multiple faces detected. Only the most confident face will be processed.\n",
      "Video/raw_images/064.png\n",
      "Multiple faces detected. Only the most confident face will be processed.\n",
      "Video/raw_images/300.png\n",
      "Video/raw_images/138.png\n",
      "Multiple faces detected. Only the most confident face will be processed.\n",
      "Multiple faces detected. Only the most confident face will be processed.\n",
      "Video/raw_images/311.png\n",
      "Video/raw_images/211.png\n",
      "Video/raw_images/021.png\n",
      "Multiple faces detected. Only the most confident face will be processed.\n",
      "Multiple faces detected. Only the most confident face will be processed.\n",
      "Video/raw_images/441.png\n",
      "Video/raw_images/102.png\n",
      "Multiple faces detected. Only the most confident face will be processed.\n",
      "Multiple faces detected. Only the most confident face will be processed.\n",
      "Video/raw_images/349.png\n",
      "Video/raw_images/199.png\n",
      "Video/raw_images/096.png\n",
      "Multiple faces detected. Only the most confident face will be processed.\n",
      "Video/raw_images/350.png\n",
      "Video/raw_images/181.png\n",
      "Video/raw_images/389.png\n",
      "Video/raw_images/360.png\n",
      "Video/raw_images/006.png\n",
      "Multiple faces detected. Only the most confident face will be processed.\n",
      "Multiple faces detected. Only the most confident face will be processed.\n",
      "Video/raw_images/446.png\n",
      "Video/raw_images/167.png\n",
      "Video/raw_images/048.png\n",
      "Multiple faces detected. Only the most confident face will be processed.\n",
      "Multiple faces detected. Only the most confident face will be processed.\n",
      "Video/raw_images/188.png\n",
      "Video/raw_images/193.png\n",
      "Video/raw_images/179.png\n",
      "Video/raw_images/286.png\n",
      "Video/raw_images/126.png\n",
      "Multiple faces detected. Only the most confident face will be processed.\n",
      "Multiple faces detected. Only the most confident face will be processed.\n",
      "Video/raw_images/087.png\n",
      "Multiple faces detected. Only the most confident face will be processed.\n",
      "Video/raw_images/127.png\n",
      "Multiple faces detected. Only the most confident face will be processed.\n",
      "Multiple faces detected. Only the most confident face will be processed.\n",
      "Video/raw_images/115.png\n",
      "Multiple faces detected. Only the most confident face will be processed.\n",
      "Multiple faces detected. Only the most confident face will be processed.\n",
      "Video/raw_images/200.png\n",
      "Video/raw_images/284.png\n",
      "Video/raw_images/315.png\n",
      "Video/raw_images/017.png\n",
      "Multiple faces detected. Only the most confident face will be processed.\n",
      "Multiple faces detected. Only the most confident face will be processed.\n",
      "Video/raw_images/189.png\n",
      "Video/raw_images/055.png\n",
      "Multiple faces detected. Only the most confident face will be processed.\n",
      "Multiple faces detected. Only the most confident face will be processed.\n",
      "Video/raw_images/279.png\n",
      "Video/raw_images/426.png\n",
      "Video/raw_images/150.png\n",
      "Multiple faces detected. Only the most confident face will be processed.\n",
      "Multiple faces detected. Only the most confident face will be processed.\n",
      "Video/raw_images/125.png\n",
      "Multiple faces detected. Only the most confident face will be processed.\n",
      "Video/raw_images/442.png\n",
      "Video/raw_images/330.png\n",
      "Video/raw_images/274.png\n",
      "Video/raw_images/178.png\n",
      "Video/raw_images/336.png\n",
      "Video/raw_images/250.png\n",
      "Video/raw_images/326.png\n",
      "Video/raw_images/344.png\n",
      "Video/raw_images/038.png\n",
      "Multiple faces detected. Only the most confident face will be processed.\n",
      "Video/raw_images/184.png\n",
      "Video/raw_images/285.png\n",
      "Video/raw_images/140.png\n",
      "Multiple faces detected. Only the most confident face will be processed.\n",
      "Video/raw_images/296.png\n",
      "Video/raw_images/449.png\n",
      "Video/raw_images/372.png\n",
      "Video/raw_images/088.png\n",
      "Multiple faces detected. Only the most confident face will be processed.\n",
      "Multiple faces detected. Only the most confident face will be processed.\n",
      "Video/raw_images/202.png\n",
      "Video/raw_images/393.png\n",
      "Multiple faces detected. Only the most confident face will be processed.\n",
      "Video/raw_images/427.png\n",
      "Video/raw_images/421.png\n",
      "Video/raw_images/043.png\n",
      "Multiple faces detected. Only the most confident face will be processed.\n",
      "Multiple faces detected. Only the most confident face will be processed.\n",
      "Video/raw_images/410.png\n",
      "Video/raw_images/308.png\n",
      "Video/raw_images/133.png\n",
      "Multiple faces detected. Only the most confident face will be processed.\n",
      "Multiple faces detected. Only the most confident face will be processed.\n",
      "Video/raw_images/390.png\n",
      "Video/raw_images/332.png\n",
      "Video/raw_images/016.png\n",
      "Multiple faces detected. Only the most confident face will be processed.\n",
      "Video/raw_images/176.png\n",
      "Video/raw_images/207.png\n",
      "Video/raw_images/224.png\n",
      "Video/raw_images/323.png\n",
      "Video/raw_images/028.png\n",
      "Multiple faces detected. Only the most confident face will be processed.\n",
      "Multiple faces detected. Only the most confident face will be processed.\n",
      "Video/raw_images/166.png\n",
      "Video/raw_images/428.png\n",
      "Video/raw_images/340.png\n",
      "Video/raw_images/059.png\n",
      "Multiple faces detected. Only the most confident face will be processed.\n",
      "Video/raw_images/351.png\n",
      "Video/raw_images/246.png\n",
      "Video/raw_images/234.png\n",
      "Video/raw_images/425.png\n",
      "Video/raw_images/164.png\n",
      "Video/raw_images/004.png\n",
      "Multiple faces detected. Only the most confident face will be processed.\n",
      "Multiple faces detected. Only the most confident face will be processed.\n",
      "Video/raw_images/348.png\n",
      "Video/raw_images/437.png\n",
      "Video/raw_images/343.png\n",
      "Video/raw_images/253.png\n",
      "Video/raw_images/203.png\n",
      "Video/raw_images/033.png\n"
     ]
    },
    {
     "name": "stdout",
     "output_type": "stream",
     "text": [
      "Multiple faces detected. Only the most confident face will be processed.\n",
      "Multiple faces detected. Only the most confident face will be processed.\n",
      "Video/raw_images/434.png\n",
      "Video/raw_images/292.png\n",
      "Video/raw_images/056.png\n",
      "Multiple faces detected. Only the most confident face will be processed.\n",
      "Multiple faces detected. Only the most confident face will be processed.\n",
      "Video/raw_images/322.png\n",
      "Video/raw_images/362.png\n",
      "Video/raw_images/074.png\n",
      "Multiple faces detected. Only the most confident face will be processed.\n",
      "Multiple faces detected. Only the most confident face will be processed.\n",
      "Video/raw_images/318.png\n",
      "Video/raw_images/290.png\n",
      "Video/raw_images/116.png\n",
      "Multiple faces detected. Only the most confident face will be processed.\n",
      "Multiple faces detected. Only the most confident face will be processed.\n",
      "Video/raw_images/291.png\n",
      "Video/raw_images/093.png\n",
      "Multiple faces detected. Only the most confident face will be processed.\n",
      "Multiple faces detected. Only the most confident face will be processed.\n",
      "Video/raw_images/232.png\n",
      "Video/raw_images/155.png\n",
      "Multiple faces detected. Only the most confident face will be processed.\n",
      "Video/raw_images/278.png\n",
      "Video/raw_images/010.png\n",
      "Multiple faces detected. Only the most confident face will be processed.\n",
      "Multiple faces detected. Only the most confident face will be processed.\n",
      "Video/raw_images/331.png\n",
      "Video/raw_images/423.png\n",
      "Video/raw_images/172.png\n",
      "Video/raw_images/287.png\n",
      "Video/raw_images/288.png\n",
      "Video/raw_images/261.png\n",
      "Video/raw_images/347.png\n",
      "Video/raw_images/058.png\n",
      "Multiple faces detected. Only the most confident face will be processed.\n",
      "Multiple faces detected. Only the most confident face will be processed.\n",
      "Video/raw_images/031.png\n",
      "Multiple faces detected. Only the most confident face will be processed.\n",
      "Multiple faces detected. Only the most confident face will be processed.\n",
      "Video/raw_images/213.png\n",
      "Video/raw_images/379.png\n",
      "Video/raw_images/243.png\n",
      "Video/raw_images/271.png\n",
      "Video/raw_images/353.png\n",
      "Video/raw_images/391.png\n",
      "Video/raw_images/069.png\n",
      "Multiple faces detected. Only the most confident face will be processed.\n",
      "Video/raw_images/237.png\n",
      "Video/raw_images/383.png\n",
      "Video/raw_images/220.png\n",
      "Video/raw_images/072.png\n",
      "Multiple faces detected. Only the most confident face will be processed.\n",
      "Video/raw_images/075.png\n",
      "Multiple faces detected. Only the most confident face will be processed.\n",
      "Multiple faces detected. Only the most confident face will be processed.\n",
      "Video/raw_images/209.png\n",
      "Video/raw_images/162.png\n",
      "Video/raw_images/363.png\n",
      "Video/raw_images/263.png\n",
      "Video/raw_images/153.png\n",
      "Multiple faces detected. Only the most confident face will be processed.\n",
      "Multiple faces detected. Only the most confident face will be processed.\n",
      "Video/raw_images/082.png\n",
      "Multiple faces detected. Only the most confident face will be processed.\n",
      "Video/raw_images/404.png\n",
      "Video/raw_images/025.png\n",
      "Multiple faces detected. Only the most confident face will be processed.\n",
      "Multiple faces detected. Only the most confident face will be processed.\n",
      "Video/raw_images/041.png\n",
      "Multiple faces detected. Only the most confident face will be processed.\n",
      "Multiple faces detected. Only the most confident face will be processed.\n",
      "Video/raw_images/182.png\n",
      "Video/raw_images/262.png\n",
      "Video/raw_images/254.png\n",
      "Video/raw_images/051.png\n",
      "Multiple faces detected. Only the most confident face will be processed.\n",
      "Multiple faces detected. Only the most confident face will be processed.\n",
      "Video/raw_images/228.png\n",
      "Video/raw_images/060.png\n",
      "Multiple faces detected. Only the most confident face will be processed.\n",
      "Multiple faces detected. Only the most confident face will be processed.\n",
      "Video/raw_images/443.png\n",
      "Video/raw_images/247.png\n",
      "Video/raw_images/275.png\n",
      "Video/raw_images/079.png\n",
      "Multiple faces detected. Only the most confident face will be processed.\n",
      "Multiple faces detected. Only the most confident face will be processed.\n",
      "Video/raw_images/367.png\n",
      "Video/raw_images/405.png\n",
      "Video/raw_images/091.png\n",
      "Multiple faces detected. Only the most confident face will be processed.\n",
      "Multiple faces detected. Only the most confident face will be processed.\n",
      "Video/raw_images/137.png\n",
      "Multiple faces detected. Only the most confident face will be processed.\n",
      "Multiple faces detected. Only the most confident face will be processed.\n",
      "Video/raw_images/205.png\n",
      "Video/raw_images/099.png\n",
      "Multiple faces detected. Only the most confident face will be processed.\n",
      "Multiple faces detected. Only the most confident face will be processed.\n",
      "Video/raw_images/071.png\n",
      "Multiple faces detected. Only the most confident face will be processed.\n",
      "Video/raw_images/154.png\n",
      "Multiple faces detected. Only the most confident face will be processed.\n",
      "Video/raw_images/095.png\n",
      "Multiple faces detected. Only the most confident face will be processed.\n",
      "Multiple faces detected. Only the most confident face will be processed.\n",
      "Video/raw_images/337.png\n",
      "Video/raw_images/208.png\n",
      "Video/raw_images/190.png\n",
      "Video/raw_images/406.png\n",
      "Video/raw_images/327.png\n",
      "Video/raw_images/085.png\n",
      "Multiple faces detected. Only the most confident face will be processed.\n",
      "Multiple faces detected. Only the most confident face will be processed.\n",
      "Video/raw_images/303.png\n",
      "Video/raw_images/204.png\n",
      "Video/raw_images/078.png\n",
      "Multiple faces detected. Only the most confident face will be processed.\n",
      "Multiple faces detected. Only the most confident face will be processed.\n",
      "Video/raw_images/374.png\n",
      "Video/raw_images/448.png\n",
      "Video/raw_images/174.png\n",
      "Video/raw_images/370.png\n",
      "Video/raw_images/101.png\n",
      "Multiple faces detected. Only the most confident face will be processed.\n",
      "Video/raw_images/381.png\n",
      "Video/raw_images/395.png\n",
      "Video/raw_images/037.png\n",
      "Multiple faces detected. Only the most confident face will be processed.\n",
      "Video/raw_images/231.png\n",
      "Video/raw_images/310.png\n",
      "Video/raw_images/110.png\n",
      "Multiple faces detected. Only the most confident face will be processed.\n",
      "Video/raw_images/114.png\n",
      "Multiple faces detected. Only the most confident face will be processed.\n",
      "Video/raw_images/183.png\n",
      "Video/raw_images/161.png\n",
      "Video/raw_images/319.png\n",
      "Video/raw_images/397.png\n",
      "Video/raw_images/083.png\n",
      "Multiple faces detected. Only the most confident face will be processed.\n",
      "Multiple faces detected. Only the most confident face will be processed.\n",
      "Video/raw_images/001.png\n",
      "Multiple faces detected. Only the most confident face will be processed.\n",
      "Video/raw_images/375.png\n",
      "Video/raw_images/013.png\n",
      "Multiple faces detected. Only the most confident face will be processed.\n",
      "Multiple faces detected. Only the most confident face will be processed.\n",
      "Video/raw_images/217.png\n",
      "Video/raw_images/157.png\n",
      "Multiple faces detected. Only the most confident face will be processed.\n",
      "Video/raw_images/378.png\n",
      "Video/raw_images/236.png\n",
      "Video/raw_images/131.png\n",
      "Multiple faces detected. Only the most confident face will be processed.\n",
      "Multiple faces detected. Only the most confident face will be processed.\n",
      "Video/raw_images/039.png\n",
      "Multiple faces detected. Only the most confident face will be processed.\n",
      "Multiple faces detected. Only the most confident face will be processed.\n",
      "Video/raw_images/403.png\n",
      "Video/raw_images/121.png\n",
      "Multiple faces detected. Only the most confident face will be processed.\n",
      "Video/raw_images/215.png\n",
      "Video/raw_images/015.png\n",
      "Multiple faces detected. Only the most confident face will be processed.\n",
      "Video/raw_images/216.png\n",
      "Video/raw_images/151.png\n",
      "Multiple faces detected. Only the most confident face will be processed.\n",
      "Multiple faces detected. Only the most confident face will be processed.\n",
      "Video/raw_images/014.png\n",
      "Multiple faces detected. Only the most confident face will be processed.\n",
      "Video/raw_images/218.png\n",
      "Video/raw_images/450.png\n",
      "Video/raw_images/249.png\n",
      "Video/raw_images/411.png\n",
      "Video/raw_images/355.png\n",
      "Video/raw_images/034.png\n",
      "Multiple faces detected. Only the most confident face will be processed.\n",
      "Multiple faces detected. Only the most confident face will be processed.\n",
      "Video/raw_images/385.png\n",
      "Video/raw_images/329.png\n",
      "Video/raw_images/270.png\n",
      "Video/raw_images/420.png\n",
      "Video/raw_images/149.png\n",
      "Multiple faces detected. Only the most confident face will be processed.\n",
      "Multiple faces detected. Only the most confident face will be processed.\n",
      "Video/raw_images/431.png\n",
      "Video/raw_images/124.png\n",
      "Multiple faces detected. Only the most confident face will be processed.\n"
     ]
    },
    {
     "name": "stdout",
     "output_type": "stream",
     "text": [
      "Multiple faces detected. Only the most confident face will be processed.\n",
      "Video/raw_images/447.png\n",
      "Video/raw_images/169.png\n",
      "Video/raw_images/356.png\n",
      "Video/raw_images/313.png\n",
      "Video/raw_images/044.png\n",
      "Multiple faces detected. Only the most confident face will be processed.\n",
      "Video/raw_images/089.png\n",
      "Multiple faces detected. Only the most confident face will be processed.\n",
      "Multiple faces detected. Only the most confident face will be processed.\n",
      "Video/raw_images/090.png\n",
      "Multiple faces detected. Only the most confident face will be processed.\n",
      "Multiple faces detected. Only the most confident face will be processed.\n",
      "Video/raw_images/240.png\n",
      "Video/raw_images/094.png\n",
      "Multiple faces detected. Only the most confident face will be processed.\n",
      "Multiple faces detected. Only the most confident face will be processed.\n",
      "Video/raw_images/197.png\n",
      "Video/raw_images/105.png\n",
      "Multiple faces detected. Only the most confident face will be processed.\n",
      "Multiple faces detected. Only the most confident face will be processed.\n",
      "Video/raw_images/339.png\n",
      "Multiple faces detected. Only the most confident face will be processed.\n",
      "Video/raw_images/163.png\n",
      "Video/raw_images/245.png\n",
      "Video/raw_images/229.png\n",
      "Video/raw_images/258.png\n",
      "Video/raw_images/187.png\n",
      "Video/raw_images/295.png\n",
      "Video/raw_images/201.png\n",
      "Video/raw_images/432.png\n",
      "Video/raw_images/145.png\n",
      "Multiple faces detected. Only the most confident face will be processed.\n",
      "Multiple faces detected. Only the most confident face will be processed.\n",
      "Video/raw_images/032.png\n",
      "Multiple faces detected. Only the most confident face will be processed.\n",
      "Multiple faces detected. Only the most confident face will be processed.\n",
      "Video/raw_images/268.png\n",
      "Video/raw_images/365.png\n",
      "Video/raw_images/419.png\n",
      "Video/raw_images/135.png\n",
      "Multiple faces detected. Only the most confident face will be processed.\n",
      "Video/raw_images/107.png\n",
      "Multiple faces detected. Only the most confident face will be processed.\n",
      "Video/raw_images/219.png\n",
      "Video/raw_images/146.png\n",
      "Multiple faces detected. Only the most confident face will be processed.\n",
      "Multiple faces detected. Only the most confident face will be processed.\n",
      "Video/raw_images/170.png\n",
      "Video/raw_images/294.png\n",
      "Video/raw_images/159.png\n",
      "Multiple faces detected. Only the most confident face will be processed.\n",
      "Video/raw_images/177.png\n",
      "Video/raw_images/388.png\n",
      "Video/raw_images/289.png\n",
      "Video/raw_images/251.png\n",
      "Video/raw_images/281.png\n",
      "Video/raw_images/357.png\n",
      "Video/raw_images/244.png\n",
      "Video/raw_images/341.png\n",
      "Video/raw_images/180.png\n",
      "Video/raw_images/282.png\n",
      "Video/raw_images/054.png\n",
      "Multiple faces detected. Only the most confident face will be processed.\n",
      "Multiple faces detected. Only the most confident face will be processed.\n",
      "Video/raw_images/136.png\n",
      "Multiple faces detected. Only the most confident face will be processed.\n",
      "Video/raw_images/081.png\n",
      "Multiple faces detected. Only the most confident face will be processed.\n",
      "Multiple faces detected. Only the most confident face will be processed.\n",
      "Video/raw_images/076.png\n",
      "Multiple faces detected. Only the most confident face will be processed.\n",
      "Multiple faces detected. Only the most confident face will be processed.\n",
      "Video/raw_images/122.png\n",
      "Multiple faces detected. Only the most confident face will be processed.\n",
      "Video/raw_images/309.png\n",
      "Video/raw_images/002.png\n",
      "Multiple faces detected. Only the most confident face will be processed.\n",
      "Video/raw_images/100.png\n",
      "Multiple faces detected. Only the most confident face will be processed.\n",
      "Video/raw_images/142.png\n",
      "Multiple faces detected. Only the most confident face will be processed.\n",
      "Multiple faces detected. Only the most confident face will be processed.\n",
      "Video/raw_images/387.png\n",
      "Video/raw_images/377.png\n",
      "Video/raw_images/053.png\n",
      "Multiple faces detected. Only the most confident face will be processed.\n",
      "Multiple faces detected. Only the most confident face will be processed.\n",
      "Video/raw_images/139.png\n",
      "Multiple faces detected. Only the most confident face will be processed.\n",
      "Video/raw_images/302.png\n",
      "Video/raw_images/063.png\n",
      "Multiple faces detected. Only the most confident face will be processed.\n",
      "Video/raw_images/123.png\n",
      "Multiple faces detected. Only the most confident face will be processed.\n",
      "Video/raw_images/299.png\n",
      "Video/raw_images/147.png\n",
      "Multiple faces detected. Only the most confident face will be processed.\n",
      "Video/raw_images/314.png\n",
      "Video/raw_images/049.png\n",
      "Multiple faces detected. Only the most confident face will be processed.\n",
      "Multiple faces detected. Only the most confident face will be processed.\n",
      "Video/raw_images/008.png\n",
      "Multiple faces detected. Only the most confident face will be processed.\n",
      "Multiple faces detected. Only the most confident face will be processed.\n",
      "Video/raw_images/277.png\n",
      "Video/raw_images/005.png\n",
      "Multiple faces detected. Only the most confident face will be processed.\n",
      "Multiple faces detected. Only the most confident face will be processed.\n",
      "Video/raw_images/084.png\n",
      "Multiple faces detected. Only the most confident face will be processed.\n",
      "Video/raw_images/260.png\n",
      "Video/raw_images/214.png\n",
      "Video/raw_images/108.png\n",
      "Multiple faces detected. Only the most confident face will be processed.\n",
      "Multiple faces detected. Only the most confident face will be processed.\n",
      "Video/raw_images/358.png\n",
      "Video/raw_images/307.png\n",
      "Video/raw_images/112.png\n",
      "Multiple faces detected. Only the most confident face will be processed.\n",
      "Multiple faces detected. Only the most confident face will be processed.\n",
      "Video/raw_images/113.png\n",
      "Multiple faces detected. Only the most confident face will be processed.\n",
      "Video/raw_images/401.png\n",
      "Video/raw_images/003.png\n",
      "Multiple faces detected. Only the most confident face will be processed.\n"
     ]
    }
   ],
   "source": [
    "import os\n",
    "import os.path\n",
    "import shutil\n",
    "from PIL import Image\n",
    "import cv2\n",
    "\n",
    "\n",
    "target_path = 'Video/src/ik.jpg'\n",
    "tar, emb_tar = utils.get_tar_inputs([target_path], fd, fv)\n",
    "src_dir = \"Video/raw_images/\"\n",
    "result_dir = \"Video/results/\"\n",
    "os.makedirs(result_dir, exist_ok=True)\n",
    "\n",
    "for target_name in os.listdir(src_dir):\n",
    "  src_path = os.path.join(src_dir, target_name)\n",
    "  result_path = os.path.join(result_dir, target_name)\n",
    "  print(src_path)\n",
    "  try:\n",
    "    src, mask, aligned_im, (x0, y0, x1, y1), landmarks,M = utils.get_src_inputs(src_path, fd, fp, idet)\n",
    "  except IndexError as e:\n",
    "    print(\"get_src_inputs IndexError:\", e)\n",
    "    shutil.copyfile(src_path, result_path)\n",
    "    continue\n",
    "  except AssertionError as e:\n",
    "    print(\"get_src_inputs AssertionError:\", e)\n",
    "    shutil.copyfile(src_path, result_path)\n",
    "    continue\n",
    "\n",
    "  tar=cv2.resize(tar, (src.shape[1], src.shape[0]))\n",
    "  tar=correct_colours(src,tar)\n",
    "  out = model.inference(src, mask, tar, emb_tar)\n",
    "  result_face = np.squeeze(((out[0] + 1) * 255 / 2).astype(np.uint8))\n",
    "  result_face=cv2.resize(result_face, (src.shape[1], src.shape[0]))\n",
    "  rst=result_face\n",
    "  trs=fs.transform(src,result_face)\n",
    "\n",
    "  if type(trs)!=int:    \n",
    "       result_face=trs\n",
    "       mouth=cv2.imread(\"mouth.png\")\n",
    "       a,b = np.where(np.all(mouth!=[0,0,0],axis=2))\n",
    "       src=correct_colours(trs,src)\n",
    "       result_face[a,b]=src[a,b]\n",
    "       a,b = np.where(np.all(mask==[255, 75, 125],axis=2))\n",
    "       result_face[a,b]=rst[a,b]\n",
    "       blur = cv2.GaussianBlur(result_face,(5,5),0)\n",
    "       a,b = np.where(np.all(mask==[0,0,255],axis=2))\n",
    "       result_face[a,b]=blur[a,b]\n",
    "    \n",
    "    \n",
    "  result_img = utils.post_process_result(src_path, fd, result_face, aligned_im, src, x0, y0, x1, y1, landmarks,M)\n",
    "  Image.fromarray(result_img).save(result_path)"
   ]
  },
  {
   "cell_type": "code",
   "execution_count": 14,
   "id": "cross-christopher",
   "metadata": {},
   "outputs": [
    {
     "name": "stdout",
     "output_type": "stream",
     "text": [
      "ffmpeg version 3.4.8-0ubuntu0.2 Copyright (c) 2000-2020 the FFmpeg developers\n",
      "  built with gcc 7 (Ubuntu 7.5.0-3ubuntu1~18.04)\n",
      "  configuration: --prefix=/usr --extra-version=0ubuntu0.2 --toolchain=hardened --libdir=/usr/lib/x86_64-linux-gnu --incdir=/usr/include/x86_64-linux-gnu --enable-gpl --disable-stripping --enable-avresample --enable-avisynth --enable-gnutls --enable-ladspa --enable-libass --enable-libbluray --enable-libbs2b --enable-libcaca --enable-libcdio --enable-libflite --enable-libfontconfig --enable-libfreetype --enable-libfribidi --enable-libgme --enable-libgsm --enable-libmp3lame --enable-libmysofa --enable-libopenjpeg --enable-libopenmpt --enable-libopus --enable-libpulse --enable-librubberband --enable-librsvg --enable-libshine --enable-libsnappy --enable-libsoxr --enable-libspeex --enable-libssh --enable-libtheora --enable-libtwolame --enable-libvorbis --enable-libvpx --enable-libwavpack --enable-libwebp --enable-libx265 --enable-libxml2 --enable-libxvid --enable-libzmq --enable-libzvbi --enable-omx --enable-openal --enable-opengl --enable-sdl2 --enable-libdc1394 --enable-libdrm --enable-libiec61883 --enable-chromaprint --enable-frei0r --enable-libopencv --enable-libx264 --enable-shared\n",
      "  WARNING: library configuration mismatch\n",
      "  avcodec     configuration: --prefix=/usr --extra-version=0ubuntu0.2 --toolchain=hardened --libdir=/usr/lib/x86_64-linux-gnu --incdir=/usr/include/x86_64-linux-gnu --enable-gpl --disable-stripping --enable-avresample --enable-avisynth --enable-gnutls --enable-ladspa --enable-libass --enable-libbluray --enable-libbs2b --enable-libcaca --enable-libcdio --enable-libflite --enable-libfontconfig --enable-libfreetype --enable-libfribidi --enable-libgme --enable-libgsm --enable-libmp3lame --enable-libmysofa --enable-libopenjpeg --enable-libopenmpt --enable-libopus --enable-libpulse --enable-librubberband --enable-librsvg --enable-libshine --enable-libsnappy --enable-libsoxr --enable-libspeex --enable-libssh --enable-libtheora --enable-libtwolame --enable-libvorbis --enable-libvpx --enable-libwavpack --enable-libwebp --enable-libx265 --enable-libxml2 --enable-libxvid --enable-libzmq --enable-libzvbi --enable-omx --enable-openal --enable-opengl --enable-sdl2 --enable-libdc1394 --enable-libdrm --enable-libiec61883 --enable-chromaprint --enable-frei0r --enable-libopencv --enable-libx264 --enable-shared --enable-version3 --disable-doc --disable-programs --enable-libopencore_amrnb --enable-libopencore_amrwb --enable-libtesseract --enable-libvo_amrwbenc\n",
      "  libavutil      55. 78.100 / 55. 78.100\n",
      "  libavcodec     57.107.100 / 57.107.100\n",
      "  libavformat    57. 83.100 / 57. 83.100\n",
      "  libavdevice    57. 10.100 / 57. 10.100\n",
      "  libavfilter     6.107.100 /  6.107.100\n",
      "  libavresample   3.  7.  0 /  3.  7.  0\n",
      "  libswscale      4.  8.100 /  4.  8.100\n",
      "  libswresample   2.  9.100 /  2.  9.100\n",
      "  libpostproc    54.  7.100 / 54.  7.100\n",
      "Input #0, image2, from 'Video/results/%03d.png':\n",
      "  Duration: 00:00:18.00, start: 0.000000, bitrate: N/A\n",
      "    Stream #0:0: Video: png, rgb24(pc), 1280x720, 25 fps, 25 tbr, 25 tbn, 25 tbc\n",
      "Stream mapping:\n",
      "  Stream #0:0 -> #0:0 (png (native) -> h264 (libx264))\n",
      "Press [q] to stop, [?] for help\n",
      "\u001b[1;36m[libx264 @ 0x559240158c00] \u001b[0musing cpu capabilities: MMX2 SSE2Fast SSSE3 SSE4.2 AVX\n",
      "\u001b[1;36m[libx264 @ 0x559240158c00] \u001b[0mprofile High, level 3.1\n",
      "\u001b[1;36m[libx264 @ 0x559240158c00] \u001b[0m264 - core 152 r2854 e9a5903 - H.264/MPEG-4 AVC codec - Copyleft 2003-2017 - http://www.videolan.org/x264.html - options: cabac=1 ref=3 deblock=1:0:0 analyse=0x3:0x113 me=hex subme=7 psy=1 psy_rd=1.00:0.00 mixed_ref=1 me_range=16 chroma_me=1 trellis=1 8x8dct=1 cqm=0 deadzone=21,11 fast_pskip=1 chroma_qp_offset=-2 threads=22 lookahead_threads=3 sliced_threads=0 nr=0 decimate=1 interlaced=0 bluray_compat=0 constrained_intra=0 bframes=3 b_pyramid=2 b_adapt=1 b_bias=0 direct=1 weightb=1 open_gop=0 weightp=2 keyint=250 keyint_min=25 scenecut=40 intra_refresh=0 rc_lookahead=40 rc=crf mbtree=1 crf=23.0 qcomp=0.60 qpmin=0 qpmax=69 qpstep=4 ip_ratio=1.40 aq=1:1.00\n",
      "Output #0, mp4, to 'video.mp4':\n",
      "  Metadata:\n",
      "    encoder         : Lavf57.83.100\n",
      "    Stream #0:0: Video: h264 (libx264) (avc1 / 0x31637661), yuv420p, 1280x720, q=-1--1, 25 fps, 12800 tbn, 25 tbc\n",
      "    Metadata:\n",
      "      encoder         : Lavc57.107.100 libx264\n",
      "    Side data:\n",
      "      cpb: bitrate max/min/avg: 0/0/0 buffer size: 0 vbv_delay: -1\n",
      "frame=  450 fps= 98 q=-1.0 Lsize=    2127kB time=00:00:17.88 bitrate= 974.6kbits/s speed=3.89x    \n",
      "video:2121kB audio:0kB subtitle:0kB other streams:0kB global headers:0kB muxing overhead: 0.288020%\n",
      "\u001b[1;36m[libx264 @ 0x559240158c00] \u001b[0mframe I:2     Avg QP:20.05  size: 39362\n",
      "\u001b[1;36m[libx264 @ 0x559240158c00] \u001b[0mframe P:113   Avg QP:23.89  size:  9706\n",
      "\u001b[1;36m[libx264 @ 0x559240158c00] \u001b[0mframe B:335   Avg QP:29.93  size:  2973\n",
      "\u001b[1;36m[libx264 @ 0x559240158c00] \u001b[0mconsecutive B-frames:  0.7%  0.0%  0.7% 98.7%\n",
      "\u001b[1;36m[libx264 @ 0x559240158c00] \u001b[0mmb I  I16..4: 22.5% 55.5% 22.1%\n",
      "\u001b[1;36m[libx264 @ 0x559240158c00] \u001b[0mmb P  I16..4:  0.7%  2.1%  0.3%  P16..4: 26.7% 13.3%  6.9%  0.0%  0.0%    skip:49.9%\n",
      "\u001b[1;36m[libx264 @ 0x559240158c00] \u001b[0mmb B  I16..4:  0.1%  0.2%  0.0%  B16..8: 28.3%  5.2%  0.5%  direct: 0.8%  skip:64.9%  L0:50.3% L1:47.6% BI: 2.1%\n",
      "\u001b[1;36m[libx264 @ 0x559240158c00] \u001b[0m8x8 transform intra:62.4% inter:64.7%\n",
      "\u001b[1;36m[libx264 @ 0x559240158c00] \u001b[0mcoded y,uvDC,uvAC intra: 49.0% 44.6% 13.5% inter: 5.9% 2.3% 0.1%\n",
      "\u001b[1;36m[libx264 @ 0x559240158c00] \u001b[0mi16 v,h,dc,p: 25% 44%  9% 22%\n",
      "\u001b[1;36m[libx264 @ 0x559240158c00] \u001b[0mi8 v,h,dc,ddl,ddr,vr,hd,vl,hu: 25% 22% 19%  4%  6%  7%  6%  6%  5%\n",
      "\u001b[1;36m[libx264 @ 0x559240158c00] \u001b[0mi4 v,h,dc,ddl,ddr,vr,hd,vl,hu: 32% 25% 16%  3%  5%  6%  5%  4%  3%\n",
      "\u001b[1;36m[libx264 @ 0x559240158c00] \u001b[0mi8c dc,h,v,p: 53% 20% 21%  7%\n",
      "\u001b[1;36m[libx264 @ 0x559240158c00] \u001b[0mWeighted P-Frames: Y:0.0% UV:0.0%\n",
      "\u001b[1;36m[libx264 @ 0x559240158c00] \u001b[0mref P L0: 50.9%  8.4% 26.3% 14.3%\n",
      "\u001b[1;36m[libx264 @ 0x559240158c00] \u001b[0mref B L0: 66.8% 24.6%  8.5%\n",
      "\u001b[1;36m[libx264 @ 0x559240158c00] \u001b[0mref B L1: 85.0% 15.0%\n",
      "\u001b[1;36m[libx264 @ 0x559240158c00] \u001b[0mkb/s:965.06\n"
     ]
    }
   ],
   "source": [
    "!ffmpeg -f image2 -i Video/results/$filename%03d.png  -vcodec libx264 -pix_fmt yuv420p -strict -2 -acodec aac video.mp4 -y"
   ]
  },
  {
   "cell_type": "code",
   "execution_count": null,
   "id": "authorized-construction",
   "metadata": {},
   "outputs": [],
   "source": []
  }
 ],
 "metadata": {
  "kernelspec": {
   "display_name": "Python 3",
   "language": "python",
   "name": "python3"
  },
  "language_info": {
   "codemirror_mode": {
    "name": "ipython",
    "version": 3
   },
   "file_extension": ".py",
   "mimetype": "text/x-python",
   "name": "python",
   "nbconvert_exporter": "python",
   "pygments_lexer": "ipython3",
   "version": "3.6.9"
  }
 },
 "nbformat": 4,
 "nbformat_minor": 5
}
